<?xml version="1.0" encoding="iso-8859-1"?>
<!-- Generator: Adobe Illustrator 19.0.0, SVG Export Plug-In . SVG Version: 6.00 Build 0)  -->
<svg version="1.1" id="Capa_1" xmlns="http://www.w3.org/2000/svg" xmlns:xlink="http://www.w3.org/1999/xlink" x="0px" y="0px"
	 viewBox="0 0 512.001 512.001" style="enable-background:new 0 0 512.001 512.001;" xml:space="preserve">
<path style="fill:#FFCBA8;" d="M401.067,290.134v17.067h-51.2v-68.267h77.568c13.696-0.017,24.815,11.068,24.832,24.764
	c0,0.026,0,0.043,0,0.068v0.768c0,14.14-11.46,25.6-25.6,25.6H401.067z"/>
<path style="fill:#F2F5F7;" d="M401.067,307.201v145.067c0,28.279-22.921,51.2-51.2,51.2V307.201H401.067z"/>
<polygon style="fill:#E92A40;" points="375.467,230.401 315.733,204.801 315.733,93.867 375.467,128.001 435.2,93.867 
	435.2,204.801 "/>
<path style="fill:#F2F5F7;" d="M315.733,290.134c21.495,16.111,34.142,41.404,34.133,68.267v145.067h-76.8V273.494
	C288.546,275.03,303.3,280.781,315.733,290.134z"/>
<path style="fill:#FFCBA8;" d="M247.467,115.201c0-7.066-5.734-12.8-12.8-12.8s-12.8,5.734-12.8,12.8s5.734,12.8,12.8,12.8
	S247.467,122.266,247.467,115.201L247.467,115.201z M128,128.001l34.133-76.8h85.333l34.133,76.8v42.667
	c-0.06,16.418-6.596,32.145-18.176,43.776l-24.491,24.491h-68.267l-24.491-24.32c-11.622-11.674-18.15-27.477-18.176-43.947
	C128,170.667,128,128.001,128,128.001z M174.933,102.401c-7.066,0-12.8,5.734-12.8,12.8s5.734,12.8,12.8,12.8s12.8-5.734,12.8-12.8
	S181.999,102.401,174.933,102.401L174.933,102.401z"/>
<path style="fill:#F7B546;" d="M281.6,59.734v68.267l-34.133-76.8h33.365C281.344,54.017,281.6,56.875,281.6,59.734z"/>
<path style="fill:#0C5DB5;" d="M273.067,273.494v229.973h-34.133v-230.4h25.6C267.435,273.067,270.251,273.238,273.067,273.494z"/>
<path style="fill:#0956A0;" d="M238.933,247.467h76.8v42.667c-12.433-9.353-27.187-15.104-42.667-16.64v-0.427h-34.133V247.467z"/>
<path style="fill:#E6A22E;" d="M230.4,8.534c24.977-0.009,46.302,18.031,50.432,42.667H128c-10.487-0.102-20.173-5.623-25.6-14.592
	L85.333,8.534H230.4z"/>
<path style="fill:#F2F5F7;" d="M204.8,287.233c12.809,0,25.088-5.094,34.133-14.165v230.4h-68.267v-230.4
	C179.712,282.138,191.992,287.233,204.8,287.233z"/>
<path style="fill:#FFCBA8;" d="M238.933,273.067c-18.799,18.85-49.323,18.893-68.173,0.094c-0.034-0.034-0.068-0.06-0.094-0.094
	v-34.133h68.267V273.067z"/>
<g>
	<circle style="fill:#F7B546;" cx="234.667" cy="115.201" r="12.8"/>
	<circle style="fill:#F7B546;" cx="174.933" cy="115.201" r="12.8"/>
</g>
<path style="fill:#0C5DB5;" d="M170.667,273.067v230.4h-34.133V273.494c2.816-0.256,5.632-0.427,8.533-0.427H170.667z"/>
<polygon style="fill:#F7B546;" points="162.133,51.201 128,128.001 128,51.201 "/>
<path style="fill:#F2F5F7;" d="M59.733,358.401c0-43.827,33.195-80.521,76.8-84.907v229.973h-76.8V358.401z"/>
<path style="fill:#0956A0;" d="M93.867,247.467h76.8v25.6h-34.133v0.427c-15.479,1.536-30.242,7.287-42.667,16.64V247.467z"/>
<path style="fill:#FFCBA8;" d="M128,128.001v34.133h-17.067c-9.412-0.026-17.041-7.654-17.067-17.067
	c0.068-9.395,7.671-16.998,17.067-17.067H128z"/>
<rect x="349.867" y="332.801" style="fill:#C3D3DE;" width="25.6" height="17.067"/>
<path style="fill:#EBB691;" d="M221.867,179.201h-25.6c-4.71,0-8.533-3.823-8.533-8.533v-25.6H204.8v17.067h17.067V179.201z"/>
<g>
	<rect x="93.867" y="349.867" style="fill:#C3D3DE;" width="17.067" height="153.6"/>
	<rect x="298.667" y="349.867" style="fill:#C3D3DE;" width="17.067" height="153.6"/>
</g>
<rect x="366.933" y="153.601" style="fill:#C4182C;" width="17.067" height="76.8"/>
<path style="fill:#EBB691;" d="M204.8,215.083h-0.077c-11.861,0.026-23.236-4.71-31.573-13.141l12.1-12.032
	c5.146,5.205,12.16,8.124,19.473,8.107l0,0c7.364,0.026,14.43-2.901,19.627-8.124l12.066,12.066
	C228.045,210.373,216.661,215.1,204.8,215.083z"/>
<circle cx="234.667" cy="115.201" r="12.8"/>
<circle cx="174.933" cy="115.201" r="12.8"/>
<path d="M427.435,230.401h-30.31l41.438-17.758c3.132-1.348,5.171-4.429,5.171-7.842V93.867c0.009-4.71-3.806-8.542-8.516-8.55
	c-1.502,0-2.978,0.393-4.284,1.143l-55.467,31.718L320,86.46c-4.079-2.355-9.301-0.956-11.657,3.123
	c-0.751,1.306-1.152,2.782-1.143,4.284v110.933c0,3.413,2.031,6.494,5.171,7.842l41.438,17.758h-3.942
	c-4.71,0-8.533,3.823-8.533,8.533v65.638c-4.847-6.861-10.59-13.039-17.067-18.381v-38.724c0-4.71-3.823-8.533-8.533-8.533H251
	l18.458-18.458c13.141-13.261,20.565-31.138,20.676-49.809V59.734c0.026-3.328-0.265-6.647-0.853-9.924
	c-4.71-28.817-29.679-49.937-58.88-49.809H85.333c-4.719,0-8.533,3.823-8.533,8.533c0,1.562,0.427,3.098,1.246,4.437l17.067,28.083
	c5.402,8.943,14.182,15.317,24.354,17.69v60.723h-8.533c-14.106,0.068-25.532,11.494-25.6,25.6c0,14.14,11.46,25.6,25.6,25.6h8.533
	c-0.026,18.756,7.424,36.753,20.693,50.005l18.389,18.261H93.867c-4.71,0-8.533,3.823-8.533,8.533V286.2
	c-21.649,17.715-34.185,44.228-34.133,72.201v145.067c0,4.71,3.823,8.533,8.533,8.533h290.133
	c32.973-0.034,59.699-26.761,59.733-59.733v-153.6h17.067c18.961-0.111,34.244-15.573,34.133-34.534c0-0.119,0-0.239,0-0.367
	C460.783,245.351,445.85,230.418,427.435,230.401z M324.267,108.579l46.933,26.829c2.62,1.502,5.845,1.502,8.465,0l47.002-26.829
	v90.598L384,217.464v-63.863h-17.067v63.863l-42.667-18.287V108.579z M307.2,274.979c-9.515-4.855-19.78-8.055-30.37-9.472
	c-1.161-0.614-2.449-0.947-3.763-0.973h-25.6v-8.533H307.2V274.979z M230.4,269.347c-14.916,12.109-36.284,12.109-51.2,0v-21.879
	h51.2v21.845V269.347z M204.8,295.8c8.9,0,17.673-2.099,25.6-6.135v205.269h-51.2V289.63c7.927,4.036,16.7,6.135,25.6,6.135V295.8z
	 M273.067,59.734v28.058L260.6,59.734H273.067z M109.688,32.18l-9.182-15.113H230.4c16.93-0.026,32.239,10.044,38.912,25.6H128.068
	C120.533,42.608,113.57,38.64,109.688,32.18z M136.533,59.734h12.467l-12.467,28.058V59.734z M110.933,153.601
	c-4.71,0-8.533-3.823-8.533-8.533c-0.009-2.304,0.939-4.506,2.611-6.084c1.562-1.579,3.695-2.466,5.922-2.449h8.533v17.067H110.933z
	 M136.533,170.667V129.81l31.147-70.076h74.24l31.147,70.076v40.815c-0.085,14.157-5.717,27.725-15.676,37.786l-21.99,21.99h-61.218
	l-21.948-21.794C142.165,198.554,136.516,184.901,136.533,170.667z M162.133,256.001v8.533h-25.6
	c-1.314,0.026-2.594,0.35-3.755,0.964c-10.59,1.408-20.864,4.608-30.379,9.472v-18.97H162.133z M68.267,358.401
	c-0.043-35.84,24.772-66.927,59.733-74.82v211.354h-17.067V349.867H93.867v145.067h-25.6V358.401z M162.133,494.934h-17.067V281.601
	h17.067V494.934z M264.533,494.934h-17.067V281.601h17.067V494.934z M341.333,494.934h-25.6V349.867h-17.067v145.067H281.6V283.58
	c34.961,7.893,59.776,38.98,59.733,74.82V494.934z M358.4,494.081V349.867h17.067v-17.067H358.4v-17.067h34.133v136.533
	c-0.026,20.267-14.285,37.726-34.133,41.805V494.081z M426.667,281.601h-25.6c-4.71,0-8.533,3.823-8.533,8.533v8.533H358.4v-51.2
	h69.035c9.105,0.102,16.41,7.569,16.307,16.683c0,0.128-0.009,0.256-0.009,0.384C443.733,273.963,436.088,281.601,426.667,281.601z"
	/>
<path d="M187.733,145.067v25.6c0,4.71,3.823,8.533,8.533,8.533h25.6v-17.067H204.8v-17.067H187.733z"/>
<path d="M204.8,215.083c11.878,0.026,23.279-4.702,31.659-13.124l-12.066-12.066c-5.197,5.222-12.262,8.149-19.627,8.124l0,0
	c-7.313,0.017-14.327-2.901-19.473-8.107l-12.1,12.032c8.337,8.431,19.712,13.167,31.573,13.141L204.8,215.083z"/>
<g>
</g>
<g>
</g>
<g>
</g>
<g>
</g>
<g>
</g>
<g>
</g>
<g>
</g>
<g>
</g>
<g>
</g>
<g>
</g>
<g>
</g>
<g>
</g>
<g>
</g>
<g>
</g>
<g>
</g>
</svg>
