<svg xmlns="http://www.w3.org/2000/svg" width="1440" height="900"><path d="M860,550L886,372L604,578Z" fill="#8e8e8e" stroke="#8e8e8e" stroke-width="1.51"/><path d="M886,372L519,273L604,578Z" fill="#9c9c9c" stroke="#9c9c9c" stroke-width="1.51"/><path d="M886,372L831,62L519,273Z" fill="#a6a6a6" stroke="#a6a6a6" stroke-width="1.51"/><path d="M604,578L915,830L860,550Z" fill="#838383" stroke="#838383" stroke-width="1.51"/><path d="M860,550L1172,653L886,372Z" fill="#828282" stroke="#828282" stroke-width="1.51"/><path d="M604,578L632,896L915,830Z" fill="#7f7f7f" stroke="#7f7f7f" stroke-width="1.51"/><path d="M251,657L632,896L604,578Z" fill="#909090" stroke="#909090" stroke-width="1.51"/><path d="M519,273L251,657L604,578Z" fill="#a2a2a2" stroke="#a2a2a2" stroke-width="1.51"/><path d="M510,-96L292,231L519,273Z" fill="#bfbfbf" stroke="#bfbfbf" stroke-width="1.51"/><path d="M915,830L1172,653L860,550Z" fill="#767676" stroke="#767676" stroke-width="1.51"/><path d="M886,372L1161,-6L831,62Z" fill="#9f9f9f" stroke="#9f9f9f" stroke-width="1.51"/><path d="M292,231L251,657L519,273Z" fill="#b0b0b0" stroke="#b0b0b0" stroke-width="1.51"/><path d="M831,62L510,-96L519,273Z" fill="#b7b7b7" stroke="#b7b7b7" stroke-width="1.51"/><path d="M1172,653L1289,371L886,372Z" fill="#7f7f7f" stroke="#7f7f7f" stroke-width="1.51"/><path d="M868,-385L511,-345L510,-96Z" fill="#c8c8c8" stroke="#c8c8c8" stroke-width="1.51"/><path d="M1289,371L1161,-6L886,372Z" fill="#909090" stroke="#909090" stroke-width="1.51"/><path d="M1590,573L1429,273L1289,371Z" fill="#707070" stroke="#707070" stroke-width="1.51"/><path d="M915,830L1193,849L1172,653Z" fill="#696969" stroke="#696969" stroke-width="1.51"/><path d="M1141,1292L1193,849L915,830Z" fill="#595959" stroke="#595959" stroke-width="1.51"/><path d="M292,231L-141,318L251,657Z" fill="#b9b9b9" stroke="#b9b9b9" stroke-width="1.51"/><path d="M510,-96L163,53L292,231Z" fill="#c9c9c9" stroke="#c9c9c9" stroke-width="1.51"/><path d="M251,657L147,880L632,896Z" fill="#919191" stroke="#919191" stroke-width="1.51"/><path d="M-144,631L147,880L251,657Z" fill="#a2a2a2" stroke="#a2a2a2" stroke-width="1.51"/><path d="M1289,371L1429,273L1161,-6Z" fill="#898989" stroke="#898989" stroke-width="1.51"/><path d="M1590,573L1289,371L1172,653Z" fill="#6d6d6d" stroke="#6d6d6d" stroke-width="1.51"/><path d="M632,896L597,1183L915,830Z" fill="#6f6f6f" stroke="#6f6f6f" stroke-width="1.51"/><path d="M147,880L597,1183L632,896Z" fill="#7c7c7c" stroke="#7c7c7c" stroke-width="1.51"/><path d="M510,-96L259,-254L163,53Z" fill="#d2d2d2" stroke="#d2d2d2" stroke-width="1.51"/><path d="M868,-385L510,-96L831,62Z" fill="#bbbbbb" stroke="#bbbbbb" stroke-width="1.51"/><path d="M511,-345L259,-254L510,-96Z" fill="#d3d3d3" stroke="#d3d3d3" stroke-width="1.51"/><path d="M1161,-6L868,-385L831,62Z" fill="#adadad" stroke="#adadad" stroke-width="1.51"/><path d="M1109,-374L868,-385L1161,-6Z" fill="#aeaeae" stroke="#aeaeae" stroke-width="1.51"/><path d="M163,53L-141,318L292,231Z" fill="#cacaca" stroke="#cacaca" stroke-width="1.51"/><path d="M-86,-83L-141,318L163,53Z" fill="#d6d6d6" stroke="#d6d6d6" stroke-width="1.51"/><path d="M1429,273L1448,-55L1161,-6Z" fill="#8e8e8e" stroke="#8e8e8e" stroke-width="1.51"/><path d="M1520,865L1590,573L1172,653Z" fill="#5c5c5c" stroke="#5c5c5c" stroke-width="1.51"/><path d="M1429,273L1800,-18L1448,-55Z" fill="#7d7d7d" stroke="#7d7d7d" stroke-width="1.51"/><path d="M-141,318L-144,631L251,657Z" fill="#b4b4b4" stroke="#b4b4b4" stroke-width="1.51"/><path d="M1448,-55L1109,-374L1161,-6Z" fill="#9f9f9f" stroke="#9f9f9f" stroke-width="1.51"/><path d="M1193,849L1520,865L1172,653Z" fill="#5e5e5e" stroke="#5e5e5e" stroke-width="1.51"/><path d="M1489,1184L1520,865L1193,849Z" fill="#4a4a4a" stroke="#4a4a4a" stroke-width="1.51"/><path d="M597,1183L858,1340L915,830Z" fill="#5b5b5b" stroke="#5b5b5b" stroke-width="1.51"/><path d="M597,1183L834,1502L858,1340Z" fill="#4b4b4b" stroke="#4b4b4b" stroke-width="1.51"/><path d="M147,880L159,1185L597,1183Z" fill="#797979" stroke="#797979" stroke-width="1.51"/><path d="M-40,991L159,1185L147,880Z" fill="#888888" stroke="#888888" stroke-width="1.51"/><path d="M-144,631L-40,991L147,880Z" fill="#9c9c9c" stroke="#9c9c9c" stroke-width="1.51"/><path d="M858,1340L1141,1292L915,830Z" fill="#4f4f4f" stroke="#4f4f4f" stroke-width="1.51"/><path d="M259,-254L-86,-83L163,53Z" fill="#dbdbdb" stroke="#dbdbdb" stroke-width="1.51"/><path d="M-364,1L-316,378L-141,318Z" fill="#d6d6d6" stroke="#d6d6d6" stroke-width="1.51"/><path d="M-141,318L-316,378L-144,631Z" fill="#c2c2c2" stroke="#c2c2c2" stroke-width="1.51"/><path d="M-144,631L-371,893L-40,991Z" fill="#a3a3a3" stroke="#a3a3a3" stroke-width="1.51"/><path d="M558,1588L834,1502L597,1183Z" fill="#4c4c4c" stroke="#4c4c4c" stroke-width="1.51"/><path d="M-40,991L-20,1184L159,1185Z" fill="#7f7f7f" stroke="#7f7f7f" stroke-width="1.51"/><path d="M-365,1244L-20,1184L-40,991Z" fill="#838383" stroke="#838383" stroke-width="1.51"/><path d="M858,1340L1167,1531L1141,1292Z" fill="#3a3a3a" stroke="#3a3a3a" stroke-width="1.51"/><path d="M558,1588L597,1183L264,1627Z" fill="#565656" stroke="#565656" stroke-width="1.51"/><path d="M1520,865L1823,682L1590,573Z" fill="#4b4b4b" stroke="#4b4b4b" stroke-width="1.51"/><path d="M1141,1292L1489,1184L1193,849Z" fill="#444444" stroke="#444444" stroke-width="1.51"/><path d="M1492,1497L1489,1184L1141,1292Z" fill="#2e2e2e" stroke="#2e2e2e" stroke-width="1.51"/><path d="M-316,378L-367,576L-144,631Z" fill="#bdbdbd" stroke="#bdbdbd" stroke-width="1.51"/><path d="M1824,970L1823,682L1520,865Z" fill="#3e3e3e" stroke="#3e3e3e" stroke-width="1.51"/><path d="M1590,573L1878,385L1429,273Z" fill="#606060" stroke="#606060" stroke-width="1.51"/><path d="M259,-254L-54,-393L-86,-83Z" fill="#e5e5e5" stroke="#e5e5e5" stroke-width="1.51"/><path d="M-86,-83L-364,1L-141,318Z" fill="#dddddd" stroke="#dddddd" stroke-width="1.51"/><path d="M511,-345L-54,-393L259,-254Z" fill="#dfdfdf" stroke="#dfdfdf" stroke-width="1.51"/><path d="M868,-385L-54,-393L511,-345Z" fill="#d7d7d7" stroke="#d7d7d7" stroke-width="1.51"/><path d="M264,1627L597,1183L159,1185Z" fill="#626262" stroke="#626262" stroke-width="1.51"/><path d="M1823,682L1878,385L1590,573Z" fill="#4f4f4f" stroke="#4f4f4f" stroke-width="1.51"/><path d="M-316,378L-364,1L-367,576Z" fill="#d0d0d0" stroke="#d0d0d0" stroke-width="1.51"/><path d="M-447,-320L-364,1L-86,-83Z" fill="#ebebeb" stroke="#ebebeb" stroke-width="1.51"/><path d="M1878,385L1800,-18L1429,273Z" fill="#6a6a6a" stroke="#6a6a6a" stroke-width="1.51"/><path d="M1448,-55L1574,-431L1109,-374Z" fill="#9b9b9b" stroke="#9b9b9b" stroke-width="1.51"/><path d="M-367,576L-371,893L-144,631Z" fill="#b0b0b0" stroke="#b0b0b0" stroke-width="1.51"/><path d="M-475,1599L-371,893L-367,576Z" fill="#969696" stroke="#969696" stroke-width="1.51"/><path d="M834,1502L1167,1531L858,1340Z" fill="#3e3e3e" stroke="#3e3e3e" stroke-width="1.51"/><path d="M558,1588L1167,1531L834,1502Z" fill="#424242" stroke="#424242" stroke-width="1.51"/><path d="M868,-385L1574,-431L-54,-393Z" fill="#c2c2c2" stroke="#c2c2c2" stroke-width="1.51"/><path d="M1109,-374L1574,-431L868,-385Z" fill="#aaaaaa" stroke="#aaaaaa" stroke-width="1.51"/><path d="M1800,-18L1574,-431L1448,-55Z" fill="#848484" stroke="#848484" stroke-width="1.51"/><path d="M1823,682L2198,509L1878,385Z" fill="#454545" stroke="#454545" stroke-width="1.51"/><path d="M1489,1184L1824,970L1520,865Z" fill="#373737" stroke="#373737" stroke-width="1.51"/><path d="M1735,1326L1824,970L1489,1184Z" fill="#242424" stroke="#242424" stroke-width="1.51"/><path d="M558,1588L2193,1629L1167,1531Z" fill="#2d2d2d" stroke="#2d2d2d" stroke-width="1.51"/><path d="M-138,1533L264,1627L159,1185Z" fill="#666666" stroke="#666666" stroke-width="1.51"/><path d="M-138,1533L159,1185L-20,1184Z" fill="#717171" stroke="#717171" stroke-width="1.51"/><path d="M1167,1531L1492,1497L1141,1292Z" fill="#2f2f2f" stroke="#2f2f2f" stroke-width="1.51"/><path d="M1767,1488L1492,1497L2193,1629Z" fill="#0e0e0e" stroke="#0e0e0e" stroke-width="1.51"/><path d="M1492,1497L1735,1326L1489,1184Z" fill="#202020" stroke="#202020" stroke-width="1.51"/><path d="M-371,893L-365,1244L-40,991Z" fill="#919191" stroke="#919191" stroke-width="1.51"/><path d="M1800,-18L1754,-443L1574,-431Z" fill="#818181" stroke="#818181" stroke-width="1.51"/><path d="M1574,-431L1754,-443L-54,-393Z" fill="#b1b1b1" stroke="#b1b1b1" stroke-width="1.51"/><path d="M2096,-391L1754,-443L1800,-18Z" fill="#777777" stroke="#777777" stroke-width="1.51"/><path d="M-365,1244L-138,1533L-20,1184Z" fill="#757575" stroke="#757575" stroke-width="1.51"/><path d="M-364,1L-447,-320L-367,576Z" fill="#e2e2e2" stroke="#e2e2e2" stroke-width="1.51"/><path d="M-371,893L-475,1599L-365,1244Z" fill="#808080" stroke="#808080" stroke-width="1.51"/><path d="M-54,-393L-447,-320L-86,-83Z" fill="#eeeeee" stroke="#eeeeee" stroke-width="1.51"/><path d="M2226,1026L1823,682L1824,970Z" fill="#2e2e2e" stroke="#2e2e2e" stroke-width="1.51"/><path d="M2226,1026L2198,509L1823,682Z" fill="#363636" stroke="#363636" stroke-width="1.51"/><path d="M1878,385L2167,20L1800,-18Z" fill="#616161" stroke="#616161" stroke-width="1.51"/><path d="M1492,1497L1767,1488L1735,1326Z" fill="#171717" stroke="#171717" stroke-width="1.51"/><path d="M2226,1247L2226,1026L1824,970Z" fill="#1d1d1d" stroke="#1d1d1d" stroke-width="1.51"/><path d="M2193,1629L1492,1497L1167,1531Z" fill="#191919" stroke="#191919" stroke-width="1.51"/><path d="M2224,279L2167,20L1878,385Z" fill="#595959" stroke="#595959" stroke-width="1.51"/><path d="M2198,509L2224,279L1878,385Z" fill="#4d4d4d" stroke="#4d4d4d" stroke-width="1.51"/><path d="M2224,279L2096,-391L2167,20Z" fill="#676767" stroke="#676767" stroke-width="1.51"/><path d="M2167,20L2096,-391L1800,-18Z" fill="#6b6b6b" stroke="#6b6b6b" stroke-width="1.51"/><path d="M2198,509L2226,1026L2224,279Z" fill="#3f3f3f" stroke="#3f3f3f" stroke-width="1.51"/><path d="M2226,1247L1824,970L1735,1326Z" fill="#181818" stroke="#181818" stroke-width="1.51"/><path d="M-365,1244L-475,1599L-138,1533Z" fill="#737373" stroke="#737373" stroke-width="1.51"/><path d="M-138,1533L-475,1599L264,1627Z" fill="#6d6d6d" stroke="#6d6d6d" stroke-width="1.51"/><path d="M-447,-320L-475,1599L-367,576Z" fill="#b9b9b9" stroke="#b9b9b9" stroke-width="1.51"/><path d="M1767,1488L2226,1247L1735,1326Z" fill="#0c0c0c" stroke="#0c0c0c" stroke-width="1.51"/><path d="M264,1627L2193,1629L558,1588Z" fill="#3b3b3b" stroke="#3b3b3b" stroke-width="1.51"/><path d="M1767,1488L2193,1629L2226,1247Z" fill="#000000" stroke="#000000" stroke-width="1.51"/></svg>